<?xml version="1.0" encoding="UTF-8"?><svg id="Layer_1" xmlns="http://www.w3.org/2000/svg" xmlns:xlink="http://www.w3.org/1999/xlink" viewBox="0 0 844.67 384.5"><defs><style>.cls-1{fill:url(#linear-gradient);}.cls-2{fill:#00959c;}.cls-3{fill:#fff;}.cls-4{fill:#2b2b2b;}.cls-5{fill:url(#linear-gradient-4);stroke:url(#linear-gradient-5);}.cls-5,.cls-6{stroke-miterlimit:10;}.cls-6{fill:url(#linear-gradient-2);stroke:url(#linear-gradient-3);}.cls-7{fill:url(#linear-gradient-6);}</style><linearGradient id="linear-gradient" x1="90.74" y1="169.38" x2="138.33" y2="169.38" gradientTransform="matrix(1, 0, 0, 1, 0, 0)" gradientUnits="userSpaceOnUse"><stop offset="0" stop-color="#00a4ff"/><stop offset=".06" stop-color="#00a4ff"/><stop offset="1" stop-color="#184865"/></linearGradient><linearGradient id="linear-gradient-2" x1="64.57" y1="182.04" x2="116.16" y2="182.04" gradientTransform="matrix(1, 0, 0, 1, 0, 0)" gradientUnits="userSpaceOnUse"><stop offset="0" stop-color="#00e189"/><stop offset=".13" stop-color="#00e189"/><stop offset="1" stop-color="#184865"/></linearGradient><linearGradient id="linear-gradient-3" x1="64.07" y1="181.78" x2="117.02" y2="181.78" xlink:href="#linear-gradient-2"/><linearGradient id="linear-gradient-4" x1="110.54" y1="158.32" x2="168.39" y2="158.32" xlink:href="#linear-gradient-2"/><linearGradient id="linear-gradient-5" x1="109.7" y1="159.05" x2="168.89" y2="159.05" xlink:href="#linear-gradient-2"/><linearGradient id="linear-gradient-6" x1="35.81" y1="170.22" x2="191.55" y2="170.22" xlink:href="#linear-gradient-2"/></defs><rect class="cls-4" x="-113.82" y="-77.14" width="1566.64" height="923.28"/><g><g><g><path class="cls-1" d="M127.22,207.48c-3.98,0-7.68-2.15-9.65-5.62l-25.39-43.28c-1.94-3.42-1.92-7.64,.03-11.03l9.39-16.26,35.21,59.54c2.01,3.48,2.01,7.63,0,11.1s-5.6,5.55-9.61,5.55Zm-25.59-72.36l-7.74,13.4c-1.62,2.8-1.63,6.29-.03,9.1l25.39,43.28c1.63,2.87,4.68,4.65,7.97,4.65s6.28-1.71,7.93-4.58c1.66-2.87,1.66-6.29,0-9.16l-33.52-56.69Z"/><path class="cls-6" d="M109.35,194.3c-1.07-1.91-3.08-3.11-5.27-3.11h-9.44c-2.3,0-3.73-2.49-2.58-4.48l4.7-8.14,.02-.03c1.2-2.09,1.18-4.66,0-6.76l-7.94-14.22-23.55,40.78c-2.09,3.63,.52,8.16,4.71,8.16h46.15l-6.81-12.21Z"/></g><path class="cls-5" d="M168.39,145.83v-2.82c0-5-4.05-9.05-9.05-9.05h-48.8l26.74,48.72v-14.09h13.1c6.47,0,11.71-5.24,11.71-11.71h-24.81v-11.05h31.11Z"/><path class="cls-7" d="M113.68,248.09c-42.94,0-77.87-34.93-77.87-77.87s34.93-77.87,77.87-77.87,77.87,34.93,77.87,77.87-34.93,77.87-77.87,77.87Zm0-153.8c-41.87,0-75.94,34.06-75.94,75.94s34.06,75.94,75.94,75.94,75.94-34.06,75.94-75.94-34.06-75.94-75.94-75.94Z"/></g><g><g><path class="cls-3" d="M226.09,157.45l23.87-62.23h21.74l23.96,62.23h-21.65l-4.83-12.37h-16.72l-4.74,12.37h-21.65Zm28.89-26.86h11.69l-5.89-15.07-5.8,15.07Z"/><path class="cls-3" d="M301.47,157.45v-62.23h17.49l20.49,28.7v-28.7h20.78v62.23h-17.68l-20.29-28.6v28.6h-20.78Z"/><path class="cls-3" d="M380.7,157.45v-47.06h-16.62v-15.17h54.11v15.17h-16.72v47.06h-20.78Z"/><path class="cls-3" d="M451.73,158.42c-6.96,0-12.85-1.06-17.68-3.19-4.83-2.13-8.52-5.54-11.06-10.24-2.55-4.7-3.82-10.89-3.82-18.55s1.27-14.04,3.82-18.75c2.54-4.7,6.23-8.12,11.06-10.24,4.83-2.13,10.73-3.19,17.68-3.19s12.85,1.06,17.68,3.19c4.83,2.13,8.52,5.54,11.06,10.24,2.54,4.7,3.82,10.95,3.82,18.75s-1.27,13.85-3.82,18.55c-2.55,4.7-6.23,8.12-11.06,10.24-4.83,2.13-10.73,3.19-17.68,3.19Zm0-17.59c3.99,0,6.88-1.13,8.65-3.38,1.77-2.25,2.66-5.93,2.66-11.02,0-5.35-.89-9.1-2.66-11.26-1.77-2.16-4.65-3.24-8.65-3.24s-6.97,1.08-8.75,3.24c-1.77,2.16-2.66,5.91-2.66,11.26s.89,8.76,2.66,11.02c1.77,2.26,4.69,3.38,8.75,3.38Zm-9.18-49.86l8.89-20.87h16.04l-9.76,20.87h-15.17Z"/><path class="cls-3" d="M490.09,157.45v-62.23h17.49l20.49,28.7v-28.7h20.78v62.23h-17.68l-20.29-28.6v28.6h-20.78Z"/><path class="cls-3" d="M556.57,157.45v-62.23h20.78v62.23h-20.78Z"/><path class="cls-3" d="M615.71,158.42c-6.96,0-12.85-1.06-17.68-3.19-4.83-2.13-8.52-5.54-11.06-10.24-2.55-4.7-3.82-10.89-3.82-18.55s1.27-14.04,3.82-18.75c2.54-4.7,6.23-8.12,11.06-10.24,4.83-2.13,10.73-3.19,17.68-3.19s12.85,1.06,17.68,3.19c4.83,2.13,8.52,5.54,11.06,10.24,2.54,4.7,3.82,10.95,3.82,18.75s-1.27,13.85-3.82,18.55c-2.55,4.7-6.23,8.12-11.06,10.24-4.83,2.13-10.73,3.19-17.68,3.19Zm0-17.59c3.99,0,6.88-1.13,8.65-3.38,1.77-2.25,2.66-5.93,2.66-11.02,0-5.35-.89-9.1-2.66-11.26-1.77-2.16-4.65-3.24-8.65-3.24s-6.97,1.08-8.75,3.24c-1.77,2.16-2.66,5.91-2.66,11.26s.89,8.76,2.66,11.02c1.77,2.26,4.69,3.38,8.75,3.38Z"/><path class="cls-3" d="M228.03,246.36v-62.23h48.22v15.17h-27.44v8.21h23.77v15.56h-23.77v23.29h-20.78Z"/><path class="cls-3" d="M280.11,246.36v-62.23h48.41v15.36h-27.64v7.92h24.06v15.75h-24.06v7.83h27.64v15.36h-48.41Z"/><path class="cls-3" d="M333.84,246.36v-62.23h33.63c5.22,0,9.52,.98,12.9,2.95,3.38,1.97,5.89,4.65,7.54,8.07,1.64,3.42,2.46,7.31,2.46,11.69s-1.06,7.88-3.19,11.06c-2.13,3.19-4.8,5.72-8.02,7.59,1.22,.97,2.25,2.38,3.09,4.25l7.25,16.62h-21.65l-6.38-14.4c-.45-.97-.93-1.64-1.45-2.03-.52-.39-1.32-.58-2.42-.58h-3v17.01h-20.78Zm20.78-33.05h7.63c4.64,0,6.96-2.16,6.96-6.47s-2.16-6.57-6.47-6.57h-8.12v13.05Z"/><path class="cls-3" d="M396.16,246.36v-62.23h17.49l20.49,28.7v-28.7h20.78v62.23h-17.68l-20.29-28.6v28.6h-20.78Z"/><path class="cls-3" d="M460.71,246.36l23.87-62.23h21.74l23.96,62.23h-21.65l-4.83-12.37h-16.72l-4.74,12.37h-21.65Zm28.89-26.86h11.69l-5.89-15.07-5.8,15.07Z"/><path class="cls-3" d="M536.08,246.36v-62.23h17.49l20.49,28.7v-28.7h20.78v62.23h-17.68l-20.29-28.6v28.6h-20.78Z"/><path class="cls-3" d="M602.57,246.36v-62.23h28.7c6.51,0,12.08,1.05,16.72,3.14,4.64,2.09,8.21,5.44,10.73,10.05,2.51,4.61,3.77,10.71,3.77,18.31,0,10.76-2.74,18.57-8.21,23.43-5.48,4.86-13.14,7.3-23,7.3h-28.7Zm20.78-15.85h5.41c2.64,0,4.89-.39,6.76-1.16,1.87-.77,3.3-2.22,4.3-4.35,1-2.13,1.5-5.25,1.5-9.37s-.45-7.25-1.35-9.37c-.9-2.13-2.29-3.59-4.15-4.4-1.87-.8-4.22-1.21-7.05-1.21h-5.41v29.86Z"/><path class="cls-3" d="M668.28,246.36v-62.23h48.41v15.36h-27.64v7.92h24.06v15.75h-24.06v7.83h27.64v15.36h-48.41Z"/><path class="cls-3" d="M742.97,247.32c-4.32,0-8.42-.35-12.32-1.06-3.9-.71-7.2-1.71-9.9-3v-16.23c3.03,1.42,6.36,2.58,10,3.48,3.64,.9,6.97,1.35,10,1.35,2.58,0,4.56-.26,5.94-.77,1.38-.51,2.08-1.48,2.08-2.9,0-1.61-1.06-2.79-3.19-3.53-2.13-.74-5.19-1.79-9.18-3.14-4.12-1.42-7.36-2.95-9.71-4.59-2.35-1.64-4.04-3.64-5.07-5.99-1.03-2.35-1.55-5.23-1.55-8.65,0-12.76,8.86-19.13,26.57-19.13,2.19,0,4.52,.14,7.01,.44,2.48,.29,4.86,.64,7.15,1.06,2.29,.42,4.24,.89,5.85,1.4v16.33c-3.29-1.29-6.3-2.21-9.03-2.75-2.74-.55-5.23-.82-7.49-.82s-4.3,.18-6.14,.53c-1.84,.35-2.75,1.27-2.75,2.75,0,1.22,.8,2.14,2.42,2.75,1.61,.61,4.32,1.43,8.12,2.46,5.09,1.42,8.94,3.09,11.55,5.02s4.38,4.2,5.32,6.81c.93,2.61,1.4,5.59,1.4,8.94,0,5.8-2.26,10.45-6.76,13.96-4.51,3.51-11.27,5.27-20.29,5.27Z"/></g><g><path class="cls-2" d="M232.32,308.78v-34.85h23.7v4.6h-17.8v10.55h15.8v4.55h-15.8v15.15h-5.9Z"/><path class="cls-2" d="M275.56,309.32c-4.8,0-8.52-1.15-11.17-3.46-2.65-2.31-3.98-5.65-3.98-10.01v-21.92h5.9v21.7c0,2.92,.8,5.11,2.41,6.55,1.6,1.44,3.89,2.16,6.85,2.16s5.19-.72,6.79-2.16c1.6-1.44,2.41-3.63,2.41-6.55v-21.7h5.84v21.92c0,4.37-1.32,7.7-3.95,10.01-2.63,2.31-6.33,3.46-11.09,3.46Z"/><path class="cls-2" d="M297.15,308.78v-34.85h5.9v30.3h17.86v4.55h-23.76Z"/><path class="cls-2" d="M325.56,308.78v-34.85h5.9v30.3h17.86v4.55h-23.76Z"/><path class="cls-2" d="M376.97,309.32c-4.51,0-8.14-.58-10.88-1.73v-5.19c1.55,.58,3.22,1.05,5.01,1.41,1.79,.36,3.56,.54,5.33,.54,2.78,0,4.86-.33,6.25-.97,1.39-.65,2.08-1.95,2.08-3.9,0-1.19-.29-2.15-.87-2.87-.58-.72-1.53-1.34-2.87-1.87-1.33-.52-3.18-1.07-5.52-1.65-3.75-.97-6.39-2.21-7.9-3.71-1.52-1.5-2.27-3.56-2.27-6.2,0-3.07,1.12-5.47,3.35-7.2,2.24-1.73,5.57-2.6,10.01-2.6,2.02,0,3.92,.14,5.71,.43,1.79,.29,3.18,.61,4.19,.97v5.2c-2.74-1.05-5.77-1.57-9.09-1.57-2.6,0-4.62,.34-6.06,1.03-1.44,.69-2.16,1.93-2.16,3.73,0,1.05,.25,1.89,.76,2.54,.5,.65,1.38,1.21,2.62,1.68,1.24,.47,2.97,.99,5.17,1.57,2.85,.72,5.06,1.58,6.63,2.57,1.57,.99,2.67,2.15,3.3,3.46,.63,1.32,.95,2.81,.95,4.46,0,3.07-1.14,5.48-3.41,7.22-2.27,1.75-5.72,2.62-10.34,2.62Z"/><path class="cls-2" d="M403.32,308.78v-30.25h-11.15v-4.6h28.14v4.6h-11.09v30.25h-5.9Z"/><path class="cls-2" d="M419.39,308.78l13.31-34.85h6.6l13.2,34.85h-6.06l-3.46-8.98h-14.02l-3.46,8.98h-6.11Zm10.5-13.53h12.12l-6.06-15.96-6.06,15.96Z"/><path class="cls-2" d="M471.67,309.32c-5.74,0-10.07-1.57-13.01-4.71-2.94-3.14-4.41-7.38-4.41-12.72,0-3.82,.62-7.12,1.87-9.88,1.24-2.76,3.15-4.89,5.71-6.39,2.56-1.5,5.83-2.25,9.79-2.25,2.02,0,3.87,.15,5.55,.46,1.68,.31,3.24,.71,4.68,1.22v5.14c-1.44-.58-2.99-1.02-4.63-1.33-1.64-.31-3.36-.46-5.17-.46-4.33,0-7.39,1.16-9.17,3.46-1.79,2.31-2.68,5.65-2.68,10.01,0,4.08,.97,7.17,2.92,9.28s4.96,3.17,9.04,3.17c1.66,0,3.33-.14,5.01-.41,1.68-.27,3.26-.69,4.74-1.27v5.19c-1.44,.47-3,.83-4.68,1.08-1.68,.25-3.53,.38-5.55,.38Z"/><path class="cls-2" d="M487.63,308.78v-34.85h5.9v16.02l14.83-16.02h6.82l-12.83,14.07,13.37,20.78h-6.28l-10.77-17.05-5.14,5.52v11.53h-5.9Z"/><path class="cls-2" d="M533.9,308.78v-34.85h14.12c5.16,0,8.98,1.36,11.47,4.09,2.49,2.72,3.73,7.24,3.73,13.56,0,5.95-1.23,10.31-3.68,13.07s-6.3,4.14-11.53,4.14h-14.12Zm5.9-4.55h7.3c2.27,0,4.17-.33,5.68-1,1.52-.67,2.65-1.92,3.41-3.76,.76-1.84,1.14-4.47,1.14-7.9s-.34-6.08-1.03-7.95c-.69-1.88-1.78-3.19-3.27-3.95-1.5-.76-3.47-1.14-5.93-1.14h-7.3v25.7Z"/><path class="cls-2" d="M569.02,308.78v-34.85h24.3v4.6h-18.4v10.55h16.4v4.55h-16.4v10.61h18.4v4.55h-24.3Z"/><path class="cls-2" d="M610.25,308.78l-13.31-34.85h6.11l10.44,28.52,10.44-28.52h6.11l-13.2,34.85h-6.6Z"/><path class="cls-2" d="M635.03,308.78v-34.85h24.3v4.6h-18.4v10.55h16.4v4.55h-16.4v10.61h18.4v4.55h-24.3Z"/><path class="cls-2" d="M664.8,308.78v-34.85h5.9v30.3h17.86v4.55h-23.76Z"/><path class="cls-2" d="M707,309.32c-5.52,0-9.65-1.45-12.39-4.36-2.74-2.9-4.11-7.4-4.11-13.5s1.37-10.95,4.11-13.8c2.74-2.85,6.87-4.27,12.39-4.27s9.69,1.43,12.42,4.27c2.72,2.85,4.09,7.45,4.09,13.8s-1.36,10.6-4.09,13.5c-2.72,2.9-6.86,4.36-12.42,4.36Zm0-4.98c3.64,0,6.32-1,8.04-3,1.71-2,2.57-5.29,2.57-9.88,0-4.83-.86-8.22-2.57-10.15-1.71-1.93-4.39-2.9-8.04-2.9s-6.27,.97-7.98,2.9c-1.71,1.93-2.57,5.31-2.57,10.15,0,4.58,.86,7.87,2.57,9.88,1.71,2,4.37,3,7.98,3Z"/><path class="cls-2" d="M729.24,308.78v-34.85h15.53c2.67,0,4.87,.51,6.6,1.52,1.73,1.01,3.01,2.39,3.84,4.14,.83,1.75,1.24,3.74,1.24,5.98,0,3.46-1.07,6.24-3.22,8.33-2.15,2.09-5.04,3.14-8.69,3.14h-9.42v11.74h-5.9Zm5.9-16.4h8.33c2.35,0,4.11-.61,5.3-1.84,1.19-1.23,1.79-2.89,1.79-4.98,0-2.24-.57-3.97-1.7-5.2-1.14-1.23-2.84-1.84-5.11-1.84h-8.6v13.85Z"/><path class="cls-2" d="M761.17,308.78v-34.85h24.3v4.6h-18.4v10.55h16.4v4.55h-16.4v10.61h18.4v4.55h-24.3Z"/><path class="cls-2" d="M790.93,308.78v-34.85h16.02c3.9,0,6.74,1,8.52,3,1.79,2,2.68,4.72,2.68,8.14,0,2.45-.61,4.55-1.84,6.28-1.23,1.73-2.99,2.94-5.3,3.63,.65,.47,1.15,.97,1.52,1.52s.72,1.26,1.08,2.16l4.38,10.12h-6.06l-4.28-9.74c-.4-.94-.87-1.6-1.43-2-.56-.4-1.51-.6-2.84-.6h-6.55v12.34h-5.9Zm5.9-17.1h8.55c2.13,0,3.81-.52,5.03-1.57,1.23-1.05,1.84-2.72,1.84-5.03,0-4.36-2.11-6.55-6.33-6.55h-9.09v13.15Z"/></g></g></g></svg>